<!-- Generated by IcoMoon.io -->
<svg version="1.1" xmlns="http://www.w3.org/2000/svg" width="32" height="32" fill="#fff" viewBox="0 0 15 15">
<title>left-arrow</title>
<path d="M6.055 7.503l5.611-5.612c0.155-0.154 0.24-0.36 0.24-0.58s-0.085-0.426-0.24-0.58l-0.492-0.491c-0.154-0.155-0.36-0.24-0.58-0.24s-0.426 0.085-0.58 0.24l-6.681 6.681c-0.155 0.155-0.24 0.362-0.239 0.582-0.001 0.221 0.084 0.428 0.239 0.583l6.675 6.675c0.154 0.155 0.36 0.24 0.58 0.24s0.426-0.085 0.58-0.24l0.492-0.491c0.32-0.32 0.32-0.841 0-1.16l-5.605-5.605z"></path>
</svg>
